# xmcd
#
# Track frame offsets:
#	150
#	12515
#	25098
#	36883
#	49505
#	61325
#	73878
#	90043
#	103985
#	115650
#	130353
#	143308
#	155768
#	169620
#	182165
#	193088
#	205950
#	219493
#	232290
#	245398
#	258225
#	269825
#	283233
#	295575
#
# Disc length: 4102 seconds
#
# Revision: 0
# Processed by: cddbd v1.5.2PL0 Copyright (c) Steve Scherf et al.
# Submitted via: EasyCDDAExtractor 16.0.6.1
#
DISCID=69100418
DTITLE=Μητροπάνος Δημήτρης - Τα 45άρια του Δημήτρη Μητροπάνου
DYEAR=1995
DGENRE=Λαϊκή
TTITLE0=Μητροπάνος Δημήτρης - Καμαρούλα μιά σταλιά
TTITLE1=Μητροπάνος Δημήτρης - Δώσε μου φωτιά
TTITLE2=Μητροπάνος Δημήτρης - Ο εραστάκος μου
TTITLE3=Μητροπάνος Δημήτρης-χορωδία - Δυό φίλοι απ' το Βόλο
TTITLE4=Μητροπάνος Δημήτρης - Πάρε το φεγγάρι κι έλα
TTITLE5=Μητροπάνος Δημήτρης - Ο ζαβοριάρης
TTITLE6=Μητροπάνος Δημήτρης - Όταν κλαίει ένας άνδρας
TTITLE7=Μητροπάνος Δημήτρης - Με ξύπναγες, με ξύπναγες
TTITLE8=Μητροπάνος Δημήτρης - Ποιος μού πήρε τη χαρά
TTITLE9=Μητροπάνος Δημήτρης - Τα άδεια χέρια
TTITLE10=Μητροπάνος Δημήτρης - Ο Ευριπίδης
TTITLE11=Μητροπάνος Δημήτρης - Φιλί, φιλί σ' ανάστησα
TTITLE12=Μητροπάνος Δημήτρης - Ο Σπύρος
TTITLE13=Μητροπάνος Δημήτρης - Ο Αλή πασάς
TTITLE14=Μητροπάνος Δημήτρης - Δε σού γύρεψα μαχαίρι
TTITLE15=Μητροπάνος Δημήτρης - Η παγωνιά
TTITLE16=Μητροπάνος Δημήτρης - Κοκκινιώτισσα
TTITLE17=Μητροπάνος Δημήτρης - Πρώτη μου αγάπη
TTITLE18=Μητροπάνος Δημήτρης - Μικρογειτονάκι μου
TTITLE19=Μητροπάνος Δημήτρης - Πώς να σ' ανταμώσω
TTITLE20=Μητροπάνος Δημήτρης - Έβγα στο κατώφλι
TTITLE21=Μητροπάνος Δημήτρης - Το παλιόπαιδο
TTITLE22=Μητροπάνος Δημήτρης - Τη νύχτα περπατώ
TTITLE23=Μητροπάνος Δημήτρης - Γιώργο που ξέρεις τα πολλά
EXTD=
EXTT0=
EXTT1=
EXTT2=
EXTT3=
EXTT4=
EXTT5=
EXTT6=
EXTT7=
EXTT8=
EXTT9=
EXTT10=
EXTT11=
EXTT12=
EXTT13=
EXTT14=
EXTT15=
EXTT16=
EXTT17=
EXTT18=
EXTT19=
EXTT20=
EXTT21=
EXTT22=
EXTT23=
PLAYORDER=
